<svg xmlns="http://www.w3.org/2000/svg" xmlns:xlink="http://www.w3.org/1999/xlink" viewBox="0 0 321 238"><defs><style>.cls-1{fill:url(#linear-gradient);}</style><linearGradient id="linear-gradient" x1="-70.45" y1="127.69" x2="953.45" y2="-142.56" gradientTransform="matrix(1.16, -0.42, 0.75, 2.06, -134.87, 107.85)" gradientUnits="userSpaceOnUse"><stop offset="0" stop-color="#f518b7" stop-opacity="0.8"/><stop offset="0.08" stop-color="#e722bb" stop-opacity="0.81"/><stop offset="0.21" stop-color="#c13dc5" stop-opacity="0.84"/><stop offset="0.32" stop-color="#9959cf" stop-opacity="0.88"/><stop offset="0.33" stop-color="#965bd0" stop-opacity="0.88"/><stop offset="0.58" stop-color="#5b85df" stop-opacity="0.96"/><stop offset="0.61" stop-color="#4b90e3" stop-opacity="0.97"/><stop offset="0.68" stop-color="#33a1ea" stop-opacity="0.99"/><stop offset="0.74" stop-color="#25acee"/><stop offset="0.8" stop-color="#20afef"/><stop offset="0.83" stop-color="#15b7f2"/><stop offset="0.87" stop-color="#0ebcf4"/><stop offset="0.99" stop-color="#0cbdf4"/></linearGradient></defs><title>logo_flat_color_small</title><g id="Layer_2" data-name="Layer 2"><g id="Layer_1-2" data-name="Layer 1"><path class="cls-1" d="M308.4,0H12.6A12.6,12.6,0,0,0,0,12.6V225.4A12.6,12.6,0,0,0,12.6,238H32A18.48,18.48,0,0,1,69,238H87A18.48,18.48,0,0,1,124,238H142A18.48,18.48,0,0,1,179,238H197A18.48,18.48,0,0,1,234,238H252A18.48,18.48,0,0,1,289,238H308.4A12.6,12.6,0,0,0,321,225.4V12.6A12.6,12.6,0,0,0,308.4,0ZM263,115.82H192V182.3H128.85V115.82h-71V55.06H263Z"/></g></g></svg>