<svg xmlns="http://www.w3.org/2000/svg" xmlns:xlink="http://www.w3.org/1999/xlink" viewBox="0 0 182.45 135.28"><defs><style>.cls-1{fill:url(#linear-gradient);}</style><linearGradient id="linear-gradient" x1="1.82" y1="-102.69" x2="362.27" y2="-306.05" gradientTransform="translate(0 339.07) scale(1 1.77)" gradientUnits="userSpaceOnUse"><stop offset="0" stop-color="#d858a0"/><stop offset="0.12" stop-color="#d558a0"/><stop offset="0.21" stop-color="#ca59a1"/><stop offset="0.31" stop-color="#b85ba3"/><stop offset="0.39" stop-color="#a05da6"/><stop offset="0.46" stop-color="#895fa8"/></linearGradient></defs><title>MetapassSmall</title><g id="Layer_2" data-name="Layer 2"><g id="Layer_1-2" data-name="Layer 1"><path class="cls-1" d="M175.29,0H7.16A7.17,7.17,0,0,0,0,7.16v121a7.17,7.17,0,0,0,7.16,7.17h11a10.5,10.5,0,0,1,21,0H49.46a10.51,10.51,0,0,1,21,0H80.72a10.51,10.51,0,0,1,21,0H112a10.5,10.5,0,0,1,21,0h10.26a10.5,10.5,0,0,1,21,0h11a7.17,7.17,0,0,0,7.16-7.17V7.16A7.17,7.17,0,0,0,175.29,0ZM147.55,56.37v45.06H125V56.37H102.49V78.9H80V56.37H57.43v45.06H34.9V33.84H80V56.37h22.53V33.84h45.06Z"/></g></g></svg>