<svg xmlns="http://www.w3.org/2000/svg" xmlns:xlink="http://www.w3.org/1999/xlink" viewBox="0 0 1023 238"><defs><style>.cls-1{fill:none;opacity:0;}.cls-2{fill:url(#linear-gradient);}.cls-3{fill:url(#linear-gradient-2);}.cls-4{fill:url(#linear-gradient-3);}.cls-5{fill:url(#linear-gradient-4);}.cls-6{fill:url(#linear-gradient-5);}</style><linearGradient id="linear-gradient" x1="-46.04" y1="220.15" x2="977.85" y2="-50.1" gradientTransform="matrix(1.16, -0.42, 0.75, 2.06, -134.87, 107.85)" gradientUnits="userSpaceOnUse"><stop offset="0" stop-color="#f518b7" stop-opacity="0.8"/><stop offset="0.08" stop-color="#e722bb" stop-opacity="0.81"/><stop offset="0.21" stop-color="#c13dc5" stop-opacity="0.84"/><stop offset="0.32" stop-color="#9959cf" stop-opacity="0.88"/><stop offset="0.33" stop-color="#965bd0" stop-opacity="0.88"/><stop offset="0.58" stop-color="#5b85df" stop-opacity="0.96"/><stop offset="0.61" stop-color="#4b90e3" stop-opacity="0.97"/><stop offset="0.68" stop-color="#33a1ea" stop-opacity="0.99"/><stop offset="0.74" stop-color="#25acee"/><stop offset="0.8" stop-color="#20afef"/><stop offset="0.83" stop-color="#15b7f2"/><stop offset="0.87" stop-color="#0ebcf4"/><stop offset="0.99" stop-color="#0cbdf4"/></linearGradient><linearGradient id="linear-gradient-2" x1="-32.32" y1="272.13" x2="991.57" y2="1.87" xlink:href="#linear-gradient"/><linearGradient id="linear-gradient-3" x1="-21.76" y1="312.14" x2="1002.13" y2="41.88" xlink:href="#linear-gradient"/><linearGradient id="linear-gradient-4" x1="-6" y1="371.87" x2="1017.9" y2="101.62" xlink:href="#linear-gradient"/><linearGradient id="linear-gradient-5" x1="-70.45" y1="127.69" x2="953.45" y2="-142.56" xlink:href="#linear-gradient"/></defs><title>logo_flat_color_1</title><g id="Layer_2" data-name="Layer 2"><g id="Layer_1-2" data-name="Layer 1"><rect class="cls-1" x="974" y="12" width="49" height="223"/><polygon class="cls-2" points="512.68 57.44 463.48 57.44 405.63 110.47 405.63 57.44 362.37 57.44 362.37 179.56 405.63 179.56 405.63 123.04 466.18 179.56 515.39 179.56 448.88 116.93 512.68 57.44"/><polygon class="cls-3" points="578.86 131.06 646.45 131.06 646.45 104.54 578.86 104.54 578.86 84.31 653.21 84.31 653.21 57.44 535.61 57.44 535.61 179.56 654.56 179.56 654.56 152.69 578.86 152.69 578.86 131.06"/><polygon class="cls-4" points="669.38 84.31 718.04 84.31 718.04 179.56 761.29 179.56 761.29 84.31 809.96 84.31 809.96 57.44 669.38 57.44 669.38 84.31"/><path class="cls-5" d="M903.17,106.64c-29.47-5.76-34.06-9.6-34.06-15.18,0-4.88,6.76-9.25,20.28-9.25,17.3,0,26.22,5.41,32.71,14.13l36.49-13.78C944.8,64.59,920.47,55,889.39,55c-32.72,0-63.54,13.61-63.54,37.16,0,23.37,27.58,32.1,55.69,37.16,28.39,5.05,39.21,8,39.21,15.52,0,4.71-5.14,9.95-25.69,9.95-21.36,0-33-6.81-39.74-16.93l-37.31,14c10.55,18,36,30.18,75.7,30.18C934.8,182,964,168,964,144.49,964,118.67,931.83,112.22,903.17,106.64Z"/><path class="cls-6" d="M308.4,0H12.6A12.6,12.6,0,0,0,0,12.6V225.4A12.6,12.6,0,0,0,12.6,238H32A18.48,18.48,0,0,1,69,238H87A18.48,18.48,0,0,1,124,238H142A18.48,18.48,0,0,1,179,238H197A18.48,18.48,0,0,1,234,238H252A18.48,18.48,0,0,1,289,238H308.4A12.6,12.6,0,0,0,321,225.4V12.6A12.6,12.6,0,0,0,308.4,0ZM263,115.82H192V182.3H128.85V115.82h-71V55.06H263Z"/></g></g></svg>